<svg version="1.1" xmlns="http://www.w3.org/2000/svg" xmlns:xlink="http://www.w3.org/1999/xlink" width="200" height="200" viewBox="0 0 200 200" style="enable-background:new 0 0 200 200;" xml:space="preserve"><linearGradient id="SVGID_1_" gradientUnits="userSpaceOnUse" x1="33.3522" y1="95.5453" x2="167.8229" y2="95.5453" gradientTransform="matrix(1 0 0 1 2 0)"><stop  offset="0" style="stop-color:#EB4975"/><stop  offset="1" style="stop-color:#ED6D4A"/></linearGradient><path class="st0" fill="url(#SVGID_1_)" d="M88.4,63.8c19.2-5.9,27.8,3.3,36.3,8.1c7.4-8.1,14.8-16.1,22.2-24.2C106.5,8,31.9,32.3,32,96h34.3 C66.3,85.8,70.5,69.5,88.4,63.8z M100.5,96c7.4,8.1,14.8,16.1,22.2,24.2c-14.7,13.4-33.1,10.1-48.4,0 c-7.4,8.1-14.8,16.1-22.2,24.2C100.1,187.1,167,148.1,167,98v-2H100.5z"/></svg>